<?xml version="1.0" encoding="UTF-8" standalone="no"?>
<svg
   xmlns:dc="http://purl.org/dc/elements/1.1/"
   xmlns:cc="http://creativecommons.org/ns#"
   xmlns:rdf="http://www.w3.org/1999/02/22-rdf-syntax-ns#"
   xmlns:svg="http://www.w3.org/2000/svg"
   xmlns="http://www.w3.org/2000/svg"
   xmlns:sodipodi="http://sodipodi.sourceforge.net/DTD/sodipodi-0.dtd"
   xmlns:inkscape="http://www.inkscape.org/namespaces/inkscape"
   id="Capa_1"
   data-name="Capa 1"
   viewBox="0 0 447.25674 183.33069"
   version="1.1"
   sodipodi:docname="logo_gvs_.svg"
   width="447.25674"
   height="183.33069"
   inkscape:version="0.92.3 (2405546, 2018-03-11)">
  <metadata
     id="metadata1107">
    <rdf:RDF>
      <cc:Work
         rdf:about="">
        <dc:format>image/svg+xml</dc:format>
        <dc:type
           rdf:resource="http://purl.org/dc/dcmitype/StillImage" />
        <dc:title></dc:title>
      </cc:Work>
    </rdf:RDF>
  </metadata>
  <sodipodi:namedview
     pagecolor="#ffffff"
     bordercolor="#666666"
     borderopacity="1"
     objecttolerance="10"
     gridtolerance="10"
     guidetolerance="10"
     inkscape:pageopacity="0"
     inkscape:pageshadow="2"
     inkscape:window-width="1920"
     inkscape:window-height="1027"
     id="namedview1105"
     showgrid="false"
     fit-margin-top="0"
     fit-margin-left="0"
     fit-margin-right="0"
     fit-margin-bottom="0"
     inkscape:zoom="2.0873786"
     inkscape:cx="305.55093"
     inkscape:cy="-19.47419"
     inkscape:window-x="1912"
     inkscape:window-y="-8"
     inkscape:window-maximized="1"
     inkscape:current-layer="Capa_1" />
  <defs
     id="defs1054">
    <style
       id="style1052">
      .cls-1 {
        fill: #00afaa;
      }

      .cls-2 {
        fill: #ff5100;
      }

      .cls-3 {
        fill: #fff;
      }

      .cls-4 {
        fill: #93d500;
      }

      .cls-5 {
        fill: #3b3735;
      }
    </style>
  </defs>
  <path
     class="cls-4"
     d="m 395.51,148.49069 c 19.36,-4.41 34.69,-17.48 43.49,-33.9 8.8,-16.409998 11.08,-36.149994 4.33,-53.859994 -2.11,-5.52 -4.87,-10.62 -8.16,-15.25 -3.3,-4.62 -7.14,-8.78 -11.4,-12.41 2.66,2.9 5.07,6.06 7.19,9.45 2.11,3.4 3.93,7.03 5.4,10.89 6.32,16.57 4.65,33.72 -2.88,48.289994 -7.52,14.55 -20.88,26.5 -37.96,32.62 v 14.17 z"
     id="path1056"
     inkscape:connector-curvature="0"
     style="fill:#93d500" />
  <path
     class="cls-1"
     d="m 302.38,83.900696 c 5.04,-37.63 34.75,-65.16 69.85,-60.08 8.17,1.19 15.77,3.92 22.59,7.84 -8.94,-6.73 -19.57,-11.35 -31.26,-13.04 -37.53,-5.44 -74.79,25.58 -74.92,65.28 z"
     id="path1058"
     inkscape:connector-curvature="0"
     style="fill:#00afaa" />
  <path
     class="cls-3"
     d="m 306.01,93.620696 c 0.12,0.31 0.22,0.63 0.33,0.96"
     id="path1060"
     inkscape:connector-curvature="0"
     style="fill:#ffffff" />
  <path
     class="cls-2"
     d="m 403.5,117.32069 c 24.08,-29.729994 20.15,-70.829994 -9.13,-91.839994 -29.27,-21.0100001 -69.99,-16.5000001 -91.65,11.9 -5.05,6.62 -8.56,13.86 -10.65,21.36 1.59,-10.89 5.92,-21.56 13.14,-31.02 23.17,-30.3700001 67.32,-36.7700001 98.61,-14.3 31.31,22.48 37.9,65.31 14.73,95.669994 -6.68,8.76 -15.28,15.21 -24.48,20.17 -0.84,0.45 2.28,-2.54 8.76,-11.15 0.21,-0.26 0.42,-0.53 0.65,-0.79"
     id="path1062"
     inkscape:connector-curvature="0"
     style="fill:#ff5100" />
  <path
     class="cls-5"
     d="M 268.88,104.70069 H 387.91 V 90.240696 H 243.12 L 190.98,137.43069 145.35,90.240696 H 11.09 c -7.3400002,0 -11.0100002,4.32 -11.0100002,12.939994 v 33.6 c 0,9.98 3.67,14.98 11.0100002,14.98 h 115.3 c 7.86,0 11.8,-4.99 11.8,-14.98 v -22.95 h -86.9 v 12.94 h 71.07 v 6.85 c 0,1.96 -1.59,3.55 -3.55,3.55 l -99.07,-0.06 c -1.96,0 -3.54,-1.59 -3.54,-3.55 v -24.04 c 0.01,-3.47 1.41,-5.25 4.21,-5.33 h 117.78 v -0.05 l 44.41,47.49 h 16.45 l 50.74,-48.49 v 10.3 c 0,8.88 3.62,13.4 10.86,13.57 h 107.9 c 1.96,0 3.55,1.59 3.55,3.55 v 2.54 c 0,1.96 -1.59,3.55 -3.55,3.55 H 249.79 v 15.1 H 375.8 c 8.07,0 12.11,-4.99 12.11,-14.98 v -9.51 c 0,-9.21 -4.04,-13.82 -12.11,-13.82 H 268.88 c -0.94,0 -1.76,-0.31 -2.48,-0.95 -0.73,-0.63 -1.09,-1.65 -1.09,-3.04 0,-1.39 0.36,-2.54 1.09,-3.42 0.72,-0.89 1.55,-1.34 2.48,-1.34 z"
     id="path1064"
     style="fill:#ffffff"
     inkscape:connector-curvature="0" />
  <g
     id="g1102"
     style="fill:#ffffff"
     transform="translate(-85.37,-114.33931)">
    <path
       class="cls-5"
       d="m 93.85,289.33 h 5.6 v 6.65 c -0.81,0.59 -1.67,1.02 -2.58,1.29 -0.91,0.27 -1.86,0.4 -2.86,0.4 -1.3,0 -2.48,-0.2 -3.54,-0.61 -1.06,-0.41 -1.97,-0.97 -2.73,-1.69 -0.76,-0.72 -1.34,-1.57 -1.75,-2.55 -0.41,-0.98 -0.62,-2.05 -0.62,-3.21 0,-1.16 0.19,-2.25 0.58,-3.24 0.39,-0.98 0.95,-1.83 1.67,-2.55 0.72,-0.71 1.6,-1.27 2.63,-1.66 1.03,-0.4 2.17,-0.59 3.44,-0.59 0.66,0 1.27,0.05 1.85,0.16 0.58,0.11 1.11,0.26 1.59,0.44 0.49,0.19 0.93,0.41 1.34,0.67 0.41,0.26 0.76,0.54 1.08,0.84 l -1.06,1.61 c -0.17,0.25 -0.38,0.41 -0.64,0.47 -0.26,0.06 -0.55,0 -0.85,-0.19 -0.29,-0.17 -0.56,-0.32 -0.82,-0.45 -0.26,-0.13 -0.52,-0.23 -0.78,-0.31 -0.27,-0.08 -0.55,-0.14 -0.84,-0.17 -0.29,-0.03 -0.63,-0.05 -0.99,-0.05 -0.68,0 -1.3,0.12 -1.85,0.36 -0.55,0.24 -1.01,0.58 -1.4,1.02 -0.39,0.44 -0.68,0.97 -0.89,1.58 -0.21,0.62 -0.31,1.3 -0.31,2.06 0,0.84 0.12,1.58 0.35,2.23 0.23,0.65 0.56,1.2 0.98,1.64 0.42,0.45 0.93,0.79 1.51,1.02 0.59,0.23 1.24,0.35 1.95,0.35 0.44,0 0.84,-0.04 1.19,-0.13 0.36,-0.09 0.7,-0.2 1.04,-0.35 v -2.39 h -1.56 c -0.23,0 -0.41,-0.06 -0.54,-0.18 -0.13,-0.12 -0.19,-0.28 -0.19,-0.46 z"
       id="path1066"
       style="fill:#ffffff"
       inkscape:connector-curvature="0" />
    <path
       class="cls-5"
       d="m 118.32,294.57 v 2.92 h -9.49 v -15.75 h 3.65 v 12.83 z"
       id="path1068"
       style="fill:#ffffff"
       inkscape:connector-curvature="0" />
    <path
       class="cls-5"
       d="m 142.17,289.61 c 0,1.14 -0.2,2.2 -0.59,3.18 -0.39,0.98 -0.95,1.83 -1.66,2.56 -0.71,0.72 -1.57,1.29 -2.58,1.7 -1.01,0.41 -2.12,0.62 -3.35,0.62 -1.23,0 -2.34,-0.21 -3.35,-0.62 -1.01,-0.41 -1.87,-0.98 -2.59,-1.7 -0.72,-0.72 -1.27,-1.58 -1.66,-2.56 -0.39,-0.98 -0.59,-2.04 -0.59,-3.18 0,-1.14 0.2,-2.2 0.59,-3.18 0.39,-0.98 0.95,-1.83 1.66,-2.55 0.72,-0.72 1.58,-1.29 2.59,-1.7 1.01,-0.41 2.13,-0.62 3.35,-0.62 1.22,0 2.34,0.21 3.35,0.62 1.01,0.41 1.86,0.98 2.58,1.7 0.71,0.72 1.27,1.57 1.66,2.55 0.39,0.98 0.59,2.04 0.59,3.17 z m -3.74,0 c 0,-0.78 -0.1,-1.48 -0.3,-2.1 -0.2,-0.62 -0.49,-1.15 -0.87,-1.58 -0.38,-0.43 -0.84,-0.76 -1.39,-1 -0.55,-0.24 -1.17,-0.35 -1.87,-0.35 -0.7,0 -1.34,0.11 -1.89,0.35 -0.55,0.23 -1.02,0.56 -1.39,1 -0.38,0.43 -0.67,0.96 -0.87,1.58 -0.2,0.62 -0.3,1.32 -0.3,2.1 0,0.78 0.1,1.49 0.3,2.11 0.2,0.62 0.49,1.15 0.87,1.58 0.38,0.43 0.84,0.76 1.39,0.99 0.55,0.23 1.18,0.34 1.89,0.34 0.71,0 1.32,-0.11 1.87,-0.34 0.55,-0.23 1.01,-0.56 1.39,-0.99 0.38,-0.43 0.67,-0.96 0.87,-1.58 0.2,-0.62 0.3,-1.33 0.3,-2.11 z"
       id="path1070"
       style="fill:#ffffff"
       inkscape:connector-curvature="0" />
    <path
       class="cls-5"
       d="m 157.03,281.74 c 1.09,0 2.01,0.1 2.78,0.3 0.76,0.2 1.39,0.49 1.87,0.85 0.48,0.37 0.83,0.81 1.05,1.34 0.22,0.53 0.33,1.11 0.33,1.76 0,0.35 -0.05,0.69 -0.15,1.02 -0.1,0.33 -0.26,0.64 -0.48,0.92 -0.22,0.29 -0.49,0.55 -0.83,0.78 -0.34,0.24 -0.75,0.44 -1.22,0.62 1.04,0.25 1.81,0.66 2.3,1.22 0.5,0.56 0.75,1.29 0.75,2.18 0,0.67 -0.13,1.29 -0.39,1.87 -0.26,0.58 -0.64,1.08 -1.14,1.51 -0.5,0.43 -1.12,0.76 -1.85,1.01 -0.74,0.24 -1.58,0.36 -2.52,0.36 h -6.29 v -15.75 h 5.79 z m -2.14,2.74 v 3.89 h 1.9 c 0.4,0 0.77,-0.03 1.09,-0.09 0.32,-0.06 0.6,-0.16 0.83,-0.3 0.23,-0.14 0.4,-0.34 0.52,-0.59 0.12,-0.25 0.18,-0.57 0.18,-0.95 0,-0.38 -0.05,-0.69 -0.14,-0.94 -0.09,-0.25 -0.24,-0.45 -0.43,-0.6 -0.19,-0.15 -0.44,-0.26 -0.74,-0.33 -0.3,-0.06 -0.65,-0.1 -1.06,-0.1 h -2.14 z m 2.57,10.26 c 0.48,0 0.88,-0.06 1.18,-0.18 0.31,-0.12 0.55,-0.28 0.72,-0.48 0.17,-0.2 0.29,-0.41 0.36,-0.66 0.07,-0.25 0.1,-0.49 0.1,-0.75 0,-0.29 -0.04,-0.55 -0.11,-0.78 -0.08,-0.23 -0.21,-0.42 -0.39,-0.58 -0.18,-0.16 -0.43,-0.28 -0.73,-0.37 -0.3,-0.09 -0.68,-0.13 -1.15,-0.13 h -2.55 v 3.92 h 2.57 z"
       id="path1072"
       style="fill:#ffffff"
       inkscape:connector-curvature="0" />
    <path
       class="cls-5"
       d="m 186.49,297.49 h -2.83 c -0.32,0 -0.57,-0.07 -0.77,-0.22 -0.2,-0.15 -0.34,-0.34 -0.44,-0.57 l -0.93,-2.75 h -5.99 l -0.93,2.75 c -0.08,0.2 -0.22,0.38 -0.43,0.55 -0.21,0.16 -0.46,0.24 -0.76,0.24 h -2.85 l 6.1,-15.75 h 3.74 l 6.1,15.75 z m -5.81,-6.02 -1.46,-4.31 c -0.11,-0.27 -0.22,-0.6 -0.35,-0.97 -0.12,-0.37 -0.24,-0.77 -0.37,-1.21 -0.11,0.44 -0.22,0.85 -0.35,1.22 -0.12,0.37 -0.24,0.7 -0.35,0.97 l -1.45,4.29 h 4.31 z"
       id="path1074"
       style="fill:#ffffff"
       inkscape:connector-curvature="0" />
    <path
       class="cls-5"
       d="m 204.15,294.57 v 2.92 h -9.49 v -15.75 h 3.65 v 12.83 z"
       id="path1076"
       style="fill:#ffffff"
       inkscape:connector-curvature="0" />
    <path
       class="cls-5"
       d="m 237.49,281.74 -6.31,15.75 h -3.31 l -6.31,-15.75 h 2.94 c 0.32,0 0.57,0.07 0.77,0.22 0.19,0.15 0.34,0.34 0.44,0.57 l 3.05,8.43 c 0.14,0.37 0.28,0.77 0.42,1.21 0.14,0.44 0.27,0.89 0.39,1.37 0.1,-0.48 0.21,-0.93 0.34,-1.37 0.13,-0.44 0.26,-0.84 0.41,-1.21 l 3.03,-8.43 c 0.08,-0.2 0.22,-0.38 0.43,-0.55 0.21,-0.16 0.46,-0.24 0.76,-0.24 h 2.96 z"
       id="path1078"
       style="fill:#ffffff"
       inkscape:connector-curvature="0" />
    <path
       class="cls-5"
       d="m 249.33,297.49 h -3.68 v -15.75 h 3.68 z"
       id="path1080"
       style="fill:#ffffff"
       inkscape:connector-curvature="0" />
    <path
       class="cls-5"
       d="m 273.59,289.61 c 0,1.14 -0.2,2.19 -0.59,3.15 -0.39,0.96 -0.95,1.8 -1.66,2.5 -0.71,0.7 -1.57,1.25 -2.58,1.64 -1.01,0.39 -2.12,0.59 -3.35,0.59 h -6.12 v -15.75 h 6.12 c 1.22,0 2.34,0.2 3.35,0.59 1.01,0.39 1.86,0.94 2.58,1.64 0.71,0.7 1.27,1.53 1.66,2.49 0.39,0.96 0.59,2.01 0.59,3.14 z m -3.74,0 c 0,-0.78 -0.1,-1.48 -0.3,-2.11 -0.2,-0.63 -0.49,-1.16 -0.87,-1.59 -0.38,-0.44 -0.84,-0.77 -1.39,-1.01 -0.55,-0.24 -1.17,-0.35 -1.87,-0.35 h -2.44 v 10.13 h 2.44 c 0.7,0 1.32,-0.12 1.87,-0.35 0.55,-0.23 1.01,-0.57 1.39,-1.01 0.38,-0.44 0.67,-0.97 0.87,-1.59 0.2,-0.63 0.3,-1.33 0.3,-2.12 z"
       id="path1082"
       style="fill:#ffffff"
       inkscape:connector-curvature="0" />
    <path
       class="cls-5"
       d="m 286.34,284.55 v 3.68 h 4.95 v 2.7 h -4.95 v 3.75 h 6.46 v 2.81 h -10.14 v -15.75 h 10.14 v 2.81 z"
       id="path1084"
       style="fill:#ffffff"
       inkscape:connector-curvature="0" />
    <path
       class="cls-5"
       d="m 317.11,289.61 c 0,1.14 -0.2,2.2 -0.59,3.18 -0.39,0.98 -0.95,1.83 -1.66,2.56 -0.71,0.72 -1.57,1.29 -2.58,1.7 -1.01,0.41 -2.12,0.62 -3.35,0.62 -1.23,0 -2.34,-0.21 -3.35,-0.62 -1.01,-0.41 -1.87,-0.98 -2.59,-1.7 -0.72,-0.72 -1.27,-1.58 -1.66,-2.56 -0.39,-0.98 -0.59,-2.04 -0.59,-3.18 0,-1.14 0.2,-2.2 0.59,-3.18 0.39,-0.98 0.95,-1.83 1.66,-2.55 0.72,-0.72 1.58,-1.29 2.59,-1.7 1.01,-0.41 2.13,-0.62 3.35,-0.62 1.22,0 2.34,0.21 3.35,0.62 1.01,0.41 1.86,0.98 2.58,1.7 0.71,0.72 1.27,1.57 1.66,2.55 0.39,0.98 0.59,2.04 0.59,3.17 z m -3.74,0 c 0,-0.78 -0.1,-1.48 -0.3,-2.1 -0.2,-0.62 -0.49,-1.15 -0.87,-1.58 -0.38,-0.43 -0.84,-0.76 -1.39,-1 -0.55,-0.24 -1.17,-0.35 -1.87,-0.35 -0.7,0 -1.34,0.11 -1.89,0.35 -0.55,0.24 -1.02,0.56 -1.39,1 -0.38,0.43 -0.67,0.96 -0.87,1.58 -0.2,0.62 -0.3,1.32 -0.3,2.1 0,0.78 0.1,1.49 0.3,2.11 0.2,0.62 0.49,1.15 0.87,1.58 0.38,0.43 0.84,0.76 1.39,0.99 0.55,0.23 1.18,0.34 1.89,0.34 0.71,0 1.32,-0.11 1.87,-0.34 0.55,-0.23 1.01,-0.56 1.39,-0.99 0.38,-0.43 0.67,-0.96 0.87,-1.58 0.2,-0.62 0.3,-1.33 0.3,-2.11 z"
       id="path1086"
       style="fill:#ffffff"
       inkscape:connector-curvature="0" />
    <path
       class="cls-5"
       d="m 346.8,284.94 c -0.11,0.17 -0.22,0.3 -0.34,0.39 -0.12,0.09 -0.27,0.13 -0.46,0.13 -0.17,0 -0.34,-0.05 -0.53,-0.16 -0.19,-0.1 -0.41,-0.22 -0.65,-0.35 -0.24,-0.13 -0.52,-0.25 -0.83,-0.35 -0.31,-0.1 -0.66,-0.16 -1.06,-0.16 -0.68,0 -1.19,0.15 -1.53,0.44 -0.33,0.29 -0.5,0.69 -0.5,1.18 0,0.32 0.1,0.58 0.3,0.79 0.2,0.21 0.47,0.39 0.79,0.54 0.32,0.15 0.7,0.29 1.12,0.42 0.42,0.13 0.85,0.27 1.29,0.42 0.44,0.15 0.87,0.34 1.29,0.55 0.42,0.21 0.8,0.48 1.12,0.8 0.33,0.32 0.59,0.72 0.79,1.18 0.2,0.46 0.3,1.02 0.3,1.68 0,0.73 -0.13,1.41 -0.38,2.04 -0.25,0.64 -0.62,1.19 -1.1,1.66 -0.48,0.47 -1.07,0.84 -1.77,1.11 -0.7,0.27 -1.5,0.41 -2.39,0.41 -0.49,0 -0.99,-0.05 -1.5,-0.15 -0.51,-0.1 -1,-0.24 -1.48,-0.43 -0.48,-0.18 -0.92,-0.4 -1.34,-0.65 -0.42,-0.25 -0.78,-0.53 -1.09,-0.84 l 1.08,-1.71 c 0.09,-0.12 0.2,-0.22 0.34,-0.31 0.14,-0.09 0.29,-0.12 0.46,-0.12 0.22,0 0.43,0.07 0.65,0.21 0.22,0.14 0.47,0.29 0.75,0.45 0.28,0.17 0.6,0.32 0.96,0.45 0.36,0.14 0.79,0.21 1.28,0.21 0.66,0 1.18,-0.15 1.55,-0.44 0.37,-0.29 0.55,-0.75 0.55,-1.39 0,-0.37 -0.1,-0.67 -0.3,-0.9 -0.2,-0.23 -0.47,-0.42 -0.79,-0.57 -0.32,-0.15 -0.7,-0.28 -1.12,-0.4 -0.42,-0.11 -0.85,-0.24 -1.29,-0.38 -0.44,-0.14 -0.87,-0.31 -1.29,-0.52 -0.42,-0.21 -0.79,-0.48 -1.12,-0.81 -0.33,-0.34 -0.59,-0.75 -0.79,-1.25 -0.2,-0.5 -0.3,-1.12 -0.3,-1.85 0,-0.59 0.12,-1.17 0.36,-1.73 0.24,-0.56 0.59,-1.06 1.05,-1.5 0.46,-0.44 1.03,-0.79 1.7,-1.05 0.67,-0.26 1.44,-0.39 2.3,-0.39 0.48,0 0.95,0.04 1.41,0.11 0.46,0.08 0.89,0.19 1.3,0.34 0.41,0.15 0.8,0.32 1.15,0.53 0.36,0.21 0.68,0.44 0.96,0.7 l -0.91,1.7 z"
       id="path1088"
       style="fill:#ffffff"
       inkscape:connector-curvature="0" />
    <path
       class="cls-5"
       d="m 364.14,291.5 v 5.99 h -3.65 v -5.99 l -5.71,-9.76 H 358 c 0.32,0 0.57,0.07 0.75,0.22 0.18,0.15 0.34,0.34 0.46,0.57 l 2.23,4.58 c 0.19,0.36 0.36,0.7 0.51,1.01 0.15,0.31 0.28,0.62 0.4,0.92 0.11,-0.31 0.23,-0.62 0.37,-0.93 0.14,-0.31 0.3,-0.65 0.49,-1 l 2.21,-4.58 c 0.05,-0.09 0.11,-0.19 0.18,-0.28 0.07,-0.09 0.16,-0.18 0.25,-0.25 0.1,-0.08 0.21,-0.14 0.34,-0.18 0.13,-0.04 0.26,-0.07 0.42,-0.07 h 3.24 l -5.71,9.76 z"
       id="path1090"
       style="fill:#ffffff"
       inkscape:connector-curvature="0" />
    <path
       class="cls-5"
       d="m 386.06,284.94 c -0.11,0.17 -0.22,0.3 -0.34,0.39 -0.12,0.09 -0.27,0.13 -0.46,0.13 -0.17,0 -0.34,-0.05 -0.53,-0.16 -0.19,-0.1 -0.41,-0.22 -0.65,-0.35 -0.24,-0.13 -0.52,-0.25 -0.83,-0.35 -0.31,-0.1 -0.66,-0.16 -1.06,-0.16 -0.68,0 -1.19,0.15 -1.53,0.44 -0.33,0.29 -0.5,0.69 -0.5,1.18 0,0.32 0.1,0.58 0.3,0.79 0.2,0.21 0.47,0.39 0.79,0.54 0.33,0.15 0.7,0.29 1.12,0.42 0.42,0.13 0.85,0.27 1.29,0.42 0.44,0.15 0.87,0.34 1.29,0.55 0.42,0.21 0.8,0.48 1.12,0.8 0.33,0.32 0.59,0.72 0.79,1.18 0.2,0.46 0.3,1.02 0.3,1.68 0,0.73 -0.13,1.41 -0.38,2.04 -0.25,0.64 -0.62,1.19 -1.1,1.66 -0.48,0.47 -1.07,0.84 -1.77,1.11 -0.7,0.27 -1.5,0.41 -2.39,0.41 -0.49,0 -0.99,-0.05 -1.5,-0.15 -0.51,-0.1 -1,-0.24 -1.48,-0.43 -0.48,-0.18 -0.92,-0.4 -1.34,-0.65 -0.42,-0.25 -0.78,-0.53 -1.09,-0.84 l 1.08,-1.71 c 0.09,-0.12 0.2,-0.22 0.34,-0.31 0.14,-0.09 0.29,-0.12 0.46,-0.12 0.22,0 0.43,0.07 0.65,0.21 0.22,0.14 0.47,0.29 0.75,0.45 0.28,0.17 0.6,0.32 0.96,0.45 0.36,0.14 0.79,0.21 1.28,0.21 0.66,0 1.18,-0.15 1.55,-0.44 0.37,-0.29 0.55,-0.75 0.55,-1.39 0,-0.37 -0.1,-0.67 -0.3,-0.9 -0.2,-0.23 -0.47,-0.42 -0.79,-0.57 -0.32,-0.15 -0.7,-0.28 -1.12,-0.4 -0.42,-0.11 -0.85,-0.24 -1.29,-0.38 -0.44,-0.14 -0.87,-0.31 -1.29,-0.52 -0.42,-0.21 -0.79,-0.48 -1.12,-0.81 -0.33,-0.34 -0.59,-0.75 -0.79,-1.25 -0.2,-0.5 -0.3,-1.12 -0.3,-1.85 0,-0.59 0.12,-1.17 0.36,-1.73 0.24,-0.56 0.59,-1.06 1.05,-1.5 0.46,-0.44 1.03,-0.79 1.7,-1.05 0.67,-0.26 1.44,-0.39 2.3,-0.39 0.48,0 0.95,0.04 1.41,0.11 0.46,0.08 0.89,0.19 1.3,0.34 0.41,0.15 0.8,0.32 1.15,0.53 0.36,0.21 0.68,0.44 0.96,0.7 l -0.91,1.7 z"
       id="path1092"
       style="fill:#ffffff"
       inkscape:connector-curvature="0" />
    <path
       class="cls-5"
       d="m 407.58,284.64 h -4.43 v 12.85 h -3.65 v -12.85 h -4.43 v -2.9 h 12.52 v 2.9 z"
       id="path1094"
       style="fill:#ffffff"
       inkscape:connector-curvature="0" />
    <path
       class="cls-5"
       d="m 420.02,284.55 v 3.68 h 4.95 v 2.7 h -4.95 v 3.75 h 6.46 v 2.81 h -10.14 v -15.75 h 10.14 v 2.81 z"
       id="path1096"
       style="fill:#ffffff"
       inkscape:connector-curvature="0" />
    <path
       class="cls-5"
       d="m 453.36,281.74 v 15.75 h -3.22 v -9.06 c 0,-0.21 0,-0.44 0.02,-0.68 0.02,-0.24 0.03,-0.49 0.06,-0.75 l -4.18,8.1 c -0.13,0.25 -0.3,0.44 -0.52,0.57 -0.22,0.13 -0.47,0.19 -0.75,0.19 h -0.5 c -0.28,0 -0.53,-0.06 -0.75,-0.19 -0.22,-0.13 -0.39,-0.32 -0.52,-0.57 l -4.18,-8.12 c 0.02,0.26 0.04,0.51 0.05,0.76 0.01,0.25 0.02,0.48 0.02,0.69 v 9.06 h -3.22 v -15.75 h 2.79 c 0.16,0 0.3,0 0.42,0.01 0.12,0.01 0.23,0.03 0.32,0.06 0.09,0.04 0.18,0.09 0.25,0.17 0.08,0.08 0.15,0.18 0.22,0.32 l 4.05,7.99 c 0.14,0.27 0.28,0.56 0.42,0.85 0.14,0.29 0.26,0.6 0.38,0.91 0.12,-0.32 0.25,-0.63 0.38,-0.93 0.13,-0.3 0.28,-0.59 0.43,-0.86 l 4.04,-7.96 c 0.07,-0.14 0.15,-0.24 0.22,-0.32 0.08,-0.07 0.16,-0.13 0.25,-0.17 0.09,-0.04 0.2,-0.06 0.32,-0.06 0.12,0 0.26,-0.01 0.42,-0.01 h 2.79 z"
       id="path1098"
       style="fill:#ffffff"
       inkscape:connector-curvature="0" />
    <path
       class="cls-5"
       d="m 472.03,284.94 c -0.11,0.17 -0.22,0.3 -0.34,0.39 -0.12,0.09 -0.27,0.13 -0.46,0.13 -0.17,0 -0.34,-0.05 -0.53,-0.16 -0.19,-0.1 -0.41,-0.22 -0.65,-0.35 -0.24,-0.13 -0.52,-0.25 -0.83,-0.35 -0.31,-0.1 -0.66,-0.16 -1.06,-0.16 -0.68,0 -1.19,0.15 -1.53,0.44 -0.33,0.29 -0.5,0.69 -0.5,1.18 0,0.32 0.1,0.58 0.3,0.79 0.2,0.21 0.47,0.39 0.79,0.54 0.33,0.15 0.7,0.29 1.12,0.42 0.42,0.13 0.85,0.27 1.29,0.42 0.44,0.15 0.87,0.34 1.29,0.55 0.42,0.21 0.8,0.48 1.12,0.8 0.33,0.32 0.59,0.72 0.79,1.18 0.2,0.46 0.3,1.02 0.3,1.68 0,0.73 -0.13,1.41 -0.38,2.04 -0.25,0.64 -0.62,1.19 -1.1,1.66 -0.48,0.47 -1.07,0.84 -1.77,1.11 -0.7,0.27 -1.5,0.41 -2.39,0.41 -0.49,0 -0.99,-0.05 -1.5,-0.15 -0.51,-0.1 -1,-0.24 -1.48,-0.43 -0.48,-0.18 -0.92,-0.4 -1.34,-0.65 -0.42,-0.25 -0.78,-0.53 -1.09,-0.84 l 1.08,-1.71 c 0.09,-0.12 0.2,-0.22 0.34,-0.31 0.14,-0.09 0.29,-0.12 0.46,-0.12 0.22,0 0.43,0.07 0.65,0.21 0.22,0.14 0.47,0.29 0.75,0.45 0.28,0.17 0.6,0.32 0.96,0.45 0.36,0.14 0.79,0.21 1.28,0.21 0.66,0 1.18,-0.15 1.55,-0.44 0.37,-0.29 0.55,-0.75 0.55,-1.39 0,-0.37 -0.1,-0.67 -0.3,-0.9 -0.2,-0.23 -0.47,-0.42 -0.79,-0.57 -0.32,-0.15 -0.7,-0.28 -1.12,-0.4 -0.42,-0.11 -0.85,-0.24 -1.29,-0.38 -0.44,-0.14 -0.87,-0.31 -1.29,-0.52 -0.42,-0.21 -0.79,-0.48 -1.12,-0.81 -0.33,-0.34 -0.59,-0.75 -0.79,-1.25 -0.2,-0.5 -0.3,-1.12 -0.3,-1.85 0,-0.59 0.12,-1.17 0.36,-1.73 0.24,-0.56 0.59,-1.06 1.05,-1.5 0.46,-0.44 1.03,-0.79 1.7,-1.05 0.67,-0.26 1.44,-0.39 2.3,-0.39 0.48,0 0.95,0.04 1.41,0.11 0.46,0.08 0.89,0.19 1.3,0.34 0.41,0.15 0.8,0.32 1.15,0.53 0.36,0.21 0.68,0.44 0.96,0.7 l -0.91,1.7 z"
       id="path1100"
       style="fill:#ffffff"
       inkscape:connector-curvature="0" />
  </g>
</svg>
